<mxfile host="app.diagrams.net" modified="2024-04-17T07:47:47.872Z" agent="Mozilla/5.0 (Windows NT 10.0; Win64; x64) AppleWebKit/537.36 (KHTML, like Gecko) Chrome/123.0.0.0 Safari/537.36" etag="MY3mIXGpDip0uql_J47I" version="24.2.5" type="device">
  <diagram name="Page-1" id="luu7nsKz-WrON0-uHyIJ">
    <mxGraphModel dx="1245" dy="644" grid="1" gridSize="10" guides="1" tooltips="1" connect="1" arrows="1" fold="1" page="1" pageScale="1" pageWidth="850" pageHeight="1100" math="0" shadow="0">
      <root>
        <mxCell id="0" />
        <mxCell id="1" parent="0" />
        <mxCell id="55r9cp8Pj4-Tj-q5VYyH-5" value="PROJECT MANAGER" style="whiteSpace=wrap;html=1;aspect=fixed;" parent="1" vertex="1">
          <mxGeometry x="10" y="390" width="130" height="130" as="geometry" />
        </mxCell>
        <mxCell id="55r9cp8Pj4-Tj-q5VYyH-14" value="" style="endArrow=classic;html=1;rounded=0;exitX=0.151;exitY=-0.004;exitDx=0;exitDy=0;exitPerimeter=0;entryX=0.024;entryY=0.331;entryDx=0;entryDy=0;entryPerimeter=0;" parent="1" source="55r9cp8Pj4-Tj-q5VYyH-5" target="4d2xTigSQF_k3JxQ7ui--35" edge="1">
          <mxGeometry width="50" height="50" relative="1" as="geometry">
            <mxPoint x="40" y="380" as="sourcePoint" />
            <mxPoint x="342.8799999999999" y="130.32000000000005" as="targetPoint" />
            <Array as="points">
              <mxPoint x="30" y="200" />
            </Array>
          </mxGeometry>
        </mxCell>
        <mxCell id="55r9cp8Pj4-Tj-q5VYyH-15" value="" style="endArrow=classic;html=1;rounded=0;exitX=0.024;exitY=0.662;exitDx=0;exitDy=0;exitPerimeter=0;entryX=0.308;entryY=-0.001;entryDx=0;entryDy=0;entryPerimeter=0;" parent="1" source="4d2xTigSQF_k3JxQ7ui--35" target="55r9cp8Pj4-Tj-q5VYyH-5" edge="1">
          <mxGeometry width="50" height="50" relative="1" as="geometry">
            <mxPoint x="341.32000000000016" y="149.60000000000002" as="sourcePoint" />
            <mxPoint x="60" y="380" as="targetPoint" />
            <Array as="points">
              <mxPoint x="50" y="220" />
            </Array>
          </mxGeometry>
        </mxCell>
        <mxCell id="55r9cp8Pj4-Tj-q5VYyH-16" value="" style="endArrow=classic;html=1;rounded=0;exitX=0.692;exitY=0.001;exitDx=0;exitDy=0;exitPerimeter=0;entryX=0.015;entryY=0.374;entryDx=0;entryDy=0;entryPerimeter=0;" parent="1" source="55r9cp8Pj4-Tj-q5VYyH-5" target="4d2xTigSQF_k3JxQ7ui--29" edge="1">
          <mxGeometry width="50" height="50" relative="1" as="geometry">
            <mxPoint x="70.03999999999996" y="383" as="sourcePoint" />
            <mxPoint x="340.96000000000004" y="260.5999999999999" as="targetPoint" />
            <Array as="points">
              <mxPoint x="100" y="300" />
            </Array>
          </mxGeometry>
        </mxCell>
        <mxCell id="55r9cp8Pj4-Tj-q5VYyH-17" value="" style="endArrow=classic;html=1;rounded=0;entryX=0.846;entryY=0;entryDx=0;entryDy=0;entryPerimeter=0;exitX=0.016;exitY=0.625;exitDx=0;exitDy=0;exitPerimeter=0;" parent="1" source="4d2xTigSQF_k3JxQ7ui--29" target="55r9cp8Pj4-Tj-q5VYyH-5" edge="1">
          <mxGeometry width="50" height="50" relative="1" as="geometry">
            <mxPoint x="344.8000000000002" y="280.84000000000003" as="sourcePoint" />
            <mxPoint x="89.22" y="384" as="targetPoint" />
            <Array as="points">
              <mxPoint x="120" y="320" />
            </Array>
          </mxGeometry>
        </mxCell>
        <mxCell id="55r9cp8Pj4-Tj-q5VYyH-24" value="" style="endArrow=classic;html=1;rounded=0;exitX=0.846;exitY=1.001;exitDx=0;exitDy=0;exitPerimeter=0;entryX=0.016;entryY=0.372;entryDx=0;entryDy=0;entryPerimeter=0;" parent="1" source="55r9cp8Pj4-Tj-q5VYyH-5" target="4d2xTigSQF_k3JxQ7ui--23" edge="1">
          <mxGeometry width="50" height="50" relative="1" as="geometry">
            <mxPoint x="118.32000000000016" y="588.45" as="sourcePoint" />
            <mxPoint x="280" y="560" as="targetPoint" />
            <Array as="points">
              <mxPoint x="120" y="590" />
            </Array>
          </mxGeometry>
        </mxCell>
        <mxCell id="55r9cp8Pj4-Tj-q5VYyH-25" value="" style="endArrow=classic;html=1;rounded=0;exitX=0.014;exitY=0.624;exitDx=0;exitDy=0;exitPerimeter=0;entryX=0.692;entryY=1;entryDx=0;entryDy=0;entryPerimeter=0;" parent="1" source="4d2xTigSQF_k3JxQ7ui--23" target="55r9cp8Pj4-Tj-q5VYyH-5" edge="1">
          <mxGeometry width="50" height="50" relative="1" as="geometry">
            <mxPoint x="280" y="580" as="sourcePoint" />
            <mxPoint x="100" y="510" as="targetPoint" />
            <Array as="points">
              <mxPoint x="100" y="610" />
            </Array>
          </mxGeometry>
        </mxCell>
        <mxCell id="55r9cp8Pj4-Tj-q5VYyH-26" value="" style="endArrow=classic;html=1;rounded=0;exitX=0.306;exitY=1;exitDx=0;exitDy=0;entryX=0.032;entryY=0.324;entryDx=0;entryDy=0;entryPerimeter=0;exitPerimeter=0;" parent="1" source="55r9cp8Pj4-Tj-q5VYyH-5" target="4d2xTigSQF_k3JxQ7ui--42" edge="1">
          <mxGeometry width="50" height="50" relative="1" as="geometry">
            <mxPoint x="90.83000000000015" y="627.8899999999999" as="sourcePoint" />
            <mxPoint x="340.24" y="744.22" as="targetPoint" />
            <Array as="points">
              <mxPoint x="50" y="690" />
            </Array>
          </mxGeometry>
        </mxCell>
        <mxCell id="55r9cp8Pj4-Tj-q5VYyH-27" value="" style="endArrow=classic;html=1;rounded=0;entryX=0.153;entryY=1;entryDx=0;entryDy=0;entryPerimeter=0;exitX=0.025;exitY=0.665;exitDx=0;exitDy=0;exitPerimeter=0;" parent="1" source="4d2xTigSQF_k3JxQ7ui--42" target="55r9cp8Pj4-Tj-q5VYyH-5" edge="1">
          <mxGeometry width="50" height="50" relative="1" as="geometry">
            <mxPoint x="346.8399999999999" y="767.3199999999999" as="sourcePoint" />
            <mxPoint x="79.83000000000015" y="628.44" as="targetPoint" />
            <Array as="points">
              <mxPoint x="30" y="710" />
            </Array>
          </mxGeometry>
        </mxCell>
        <mxCell id="55r9cp8Pj4-Tj-q5VYyH-46" value="" style="endArrow=none;html=1;rounded=0;" parent="1" edge="1">
          <mxGeometry width="50" height="50" relative="1" as="geometry">
            <mxPoint x="580" y="480.00000000000006" as="sourcePoint" />
            <mxPoint x="700" y="480.00000000000006" as="targetPoint" />
          </mxGeometry>
        </mxCell>
        <mxCell id="3neaD_Rnh4ogwWbG_XFk-1" value="keep track of team member" style="text;html=1;align=center;verticalAlign=middle;resizable=0;points=[];autosize=1;strokeColor=none;fillColor=none;" parent="1" vertex="1">
          <mxGeometry x="143" y="275" width="170" height="30" as="geometry" />
        </mxCell>
        <mxCell id="3neaD_Rnh4ogwWbG_XFk-2" value="Acknowledgement" style="text;html=1;align=center;verticalAlign=middle;resizable=0;points=[];autosize=1;strokeColor=none;fillColor=none;" parent="1" vertex="1">
          <mxGeometry x="168" y="295" width="120" height="30" as="geometry" />
        </mxCell>
        <mxCell id="3neaD_Rnh4ogwWbG_XFk-8" value="View employee attendance" style="text;html=1;align=center;verticalAlign=middle;resizable=0;points=[];autosize=1;strokeColor=none;fillColor=none;" parent="1" vertex="1">
          <mxGeometry x="135" y="564" width="170" height="30" as="geometry" />
        </mxCell>
        <mxCell id="3neaD_Rnh4ogwWbG_XFk-9" value="Acknowledgement" style="text;html=1;align=center;verticalAlign=middle;resizable=0;points=[];autosize=1;strokeColor=none;fillColor=none;" parent="1" vertex="1">
          <mxGeometry x="165" y="584" width="120" height="30" as="geometry" />
        </mxCell>
        <mxCell id="3neaD_Rnh4ogwWbG_XFk-10" value="View project details" style="text;html=1;align=center;verticalAlign=middle;resizable=0;points=[];autosize=1;strokeColor=none;fillColor=none;" parent="1" vertex="1">
          <mxGeometry x="155" y="660" width="130" height="30" as="geometry" />
        </mxCell>
        <mxCell id="3neaD_Rnh4ogwWbG_XFk-11" value="Acknowledgement" style="text;html=1;align=center;verticalAlign=middle;resizable=0;points=[];autosize=1;strokeColor=none;fillColor=none;" parent="1" vertex="1">
          <mxGeometry x="160" y="685" width="120" height="30" as="geometry" />
        </mxCell>
        <mxCell id="3neaD_Rnh4ogwWbG_XFk-21" value="Email/Password" style="text;html=1;align=center;verticalAlign=middle;resizable=0;points=[];autosize=1;strokeColor=none;fillColor=none;" parent="1" vertex="1">
          <mxGeometry x="173" y="175" width="110" height="30" as="geometry" />
        </mxCell>
        <mxCell id="3neaD_Rnh4ogwWbG_XFk-22" value="Dashboard" style="text;html=1;align=center;verticalAlign=middle;resizable=0;points=[];autosize=1;strokeColor=none;fillColor=none;" parent="1" vertex="1">
          <mxGeometry x="185" y="195" width="80" height="30" as="geometry" />
        </mxCell>
        <mxCell id="4d2xTigSQF_k3JxQ7ui--1" value="Manage Task&lt;br style=&quot;border-color: var(--border-color);&quot;&gt;3.0" style="ellipse;whiteSpace=wrap;html=1;" parent="1" vertex="1">
          <mxGeometry x="320" y="380" width="120" height="60" as="geometry" />
        </mxCell>
        <mxCell id="4d2xTigSQF_k3JxQ7ui--2" value="" style="endArrow=classic;html=1;rounded=0;entryX=0.028;entryY=0.333;entryDx=0;entryDy=0;entryPerimeter=0;exitX=1;exitY=0.077;exitDx=0;exitDy=0;exitPerimeter=0;" parent="1" target="4d2xTigSQF_k3JxQ7ui--1" edge="1">
          <mxGeometry width="50" height="50" relative="1" as="geometry">
            <mxPoint x="140" y="400" as="sourcePoint" />
            <mxPoint x="320" y="402" as="targetPoint" />
          </mxGeometry>
        </mxCell>
        <mxCell id="4d2xTigSQF_k3JxQ7ui--3" value="" style="endArrow=classic;html=1;rounded=0;entryX=1;entryY=0.23;entryDx=0;entryDy=0;entryPerimeter=0;exitX=0.028;exitY=0.665;exitDx=0;exitDy=0;exitPerimeter=0;" parent="1" source="4d2xTigSQF_k3JxQ7ui--1" edge="1">
          <mxGeometry width="50" height="50" relative="1" as="geometry">
            <mxPoint x="310" y="422" as="sourcePoint" />
            <mxPoint x="140" y="420" as="targetPoint" />
          </mxGeometry>
        </mxCell>
        <mxCell id="4d2xTigSQF_k3JxQ7ui--4" value="" style="endArrow=classic;html=1;rounded=0;exitX=0.97;exitY=0.334;exitDx=0;exitDy=0;exitPerimeter=0;" parent="1" source="4d2xTigSQF_k3JxQ7ui--1" edge="1">
          <mxGeometry width="50" height="50" relative="1" as="geometry">
            <mxPoint x="440" y="405" as="sourcePoint" />
            <mxPoint x="580" y="400" as="targetPoint" />
          </mxGeometry>
        </mxCell>
        <mxCell id="4d2xTigSQF_k3JxQ7ui--5" value="" style="endArrow=classic;html=1;rounded=0;entryX=0.971;entryY=0.667;entryDx=0;entryDy=0;entryPerimeter=0;" parent="1" target="4d2xTigSQF_k3JxQ7ui--1" edge="1">
          <mxGeometry width="50" height="50" relative="1" as="geometry">
            <mxPoint x="580" y="420" as="sourcePoint" />
            <mxPoint x="438.67999999999984" y="422.28" as="targetPoint" />
          </mxGeometry>
        </mxCell>
        <mxCell id="4d2xTigSQF_k3JxQ7ui--6" value="" style="endArrow=none;html=1;rounded=0;" parent="1" edge="1">
          <mxGeometry width="50" height="50" relative="1" as="geometry">
            <mxPoint x="580" y="390" as="sourcePoint" />
            <mxPoint x="700" y="390" as="targetPoint" />
          </mxGeometry>
        </mxCell>
        <mxCell id="4d2xTigSQF_k3JxQ7ui--7" value="" style="endArrow=none;html=1;rounded=0;" parent="1" edge="1">
          <mxGeometry width="50" height="50" relative="1" as="geometry">
            <mxPoint x="580" y="430" as="sourcePoint" />
            <mxPoint x="700" y="430" as="targetPoint" />
          </mxGeometry>
        </mxCell>
        <mxCell id="4d2xTigSQF_k3JxQ7ui--8" value="Acknowledgement" style="text;html=1;align=center;verticalAlign=middle;resizable=0;points=[];autosize=1;strokeColor=none;fillColor=none;" parent="1" vertex="1">
          <mxGeometry x="168" y="395" width="120" height="30" as="geometry" />
        </mxCell>
        <mxCell id="4d2xTigSQF_k3JxQ7ui--9" value="&lt;font style=&quot;font-size: 12px;&quot;&gt;Add and assign task&lt;/font&gt;" style="text;html=1;align=center;verticalAlign=middle;resizable=0;points=[];autosize=1;strokeColor=none;fillColor=none;fontSize=16;" parent="1" vertex="1">
          <mxGeometry x="163" y="376" width="130" height="30" as="geometry" />
        </mxCell>
        <mxCell id="4d2xTigSQF_k3JxQ7ui--10" value="project" style="text;html=1;align=center;verticalAlign=middle;resizable=0;points=[];autosize=1;strokeColor=none;fillColor=none;" parent="1" vertex="1">
          <mxGeometry x="610" y="395" width="60" height="30" as="geometry" />
        </mxCell>
        <mxCell id="4d2xTigSQF_k3JxQ7ui--11" value="Add leave&lt;br style=&quot;border-color: var(--border-color);&quot;&gt;4.0" style="ellipse;whiteSpace=wrap;html=1;" parent="1" vertex="1">
          <mxGeometry x="320" y="470" width="120" height="60" as="geometry" />
        </mxCell>
        <mxCell id="4d2xTigSQF_k3JxQ7ui--12" value="" style="endArrow=classic;html=1;rounded=0;entryX=0.027;entryY=0.334;entryDx=0;entryDy=0;entryPerimeter=0;exitX=1.001;exitY=0.77;exitDx=0;exitDy=0;exitPerimeter=0;" parent="1" target="4d2xTigSQF_k3JxQ7ui--11" edge="1">
          <mxGeometry width="50" height="50" relative="1" as="geometry">
            <mxPoint x="140" y="490" as="sourcePoint" />
            <mxPoint x="320" y="492" as="targetPoint" />
          </mxGeometry>
        </mxCell>
        <mxCell id="4d2xTigSQF_k3JxQ7ui--13" value="" style="endArrow=classic;html=1;rounded=0;entryX=1.001;entryY=0.922;entryDx=0;entryDy=0;entryPerimeter=0;exitX=0.028;exitY=0.668;exitDx=0;exitDy=0;exitPerimeter=0;" parent="1" source="4d2xTigSQF_k3JxQ7ui--11" edge="1">
          <mxGeometry width="50" height="50" relative="1" as="geometry">
            <mxPoint x="310" y="512" as="sourcePoint" />
            <mxPoint x="140" y="510" as="targetPoint" />
          </mxGeometry>
        </mxCell>
        <mxCell id="4d2xTigSQF_k3JxQ7ui--14" value="" style="endArrow=classic;html=1;rounded=0;exitX=0.972;exitY=0.335;exitDx=0;exitDy=0;exitPerimeter=0;" parent="1" source="4d2xTigSQF_k3JxQ7ui--11" edge="1">
          <mxGeometry width="50" height="50" relative="1" as="geometry">
            <mxPoint x="440" y="495" as="sourcePoint" />
            <mxPoint x="580" y="490" as="targetPoint" />
          </mxGeometry>
        </mxCell>
        <mxCell id="4d2xTigSQF_k3JxQ7ui--15" value="" style="endArrow=classic;html=1;rounded=0;entryX=0.97;entryY=0.667;entryDx=0;entryDy=0;entryPerimeter=0;" parent="1" target="4d2xTigSQF_k3JxQ7ui--11" edge="1">
          <mxGeometry width="50" height="50" relative="1" as="geometry">
            <mxPoint x="580" y="510" as="sourcePoint" />
            <mxPoint x="438.67999999999984" y="512.28" as="targetPoint" />
          </mxGeometry>
        </mxCell>
        <mxCell id="4d2xTigSQF_k3JxQ7ui--19" value="leave" style="text;html=1;align=center;verticalAlign=middle;resizable=0;points=[];autosize=1;strokeColor=none;fillColor=none;" parent="1" vertex="1">
          <mxGeometry x="615" y="485" width="50" height="30" as="geometry" />
        </mxCell>
        <mxCell id="4d2xTigSQF_k3JxQ7ui--20" value="" style="endArrow=none;html=1;rounded=0;" parent="1" edge="1">
          <mxGeometry width="50" height="50" relative="1" as="geometry">
            <mxPoint x="580" y="520" as="sourcePoint" />
            <mxPoint x="700" y="520" as="targetPoint" />
          </mxGeometry>
        </mxCell>
        <mxCell id="4d2xTigSQF_k3JxQ7ui--21" value="Add leave" style="text;html=1;align=center;verticalAlign=middle;resizable=0;points=[];autosize=1;strokeColor=none;fillColor=none;" parent="1" vertex="1">
          <mxGeometry x="185" y="466" width="80" height="30" as="geometry" />
        </mxCell>
        <mxCell id="4d2xTigSQF_k3JxQ7ui--22" value="Acknowledgement" style="text;html=1;align=center;verticalAlign=middle;resizable=0;points=[];autosize=1;strokeColor=none;fillColor=none;" parent="1" vertex="1">
          <mxGeometry x="165" y="485" width="120" height="30" as="geometry" />
        </mxCell>
        <mxCell id="4d2xTigSQF_k3JxQ7ui--23" value="View employee attendance&lt;br style=&quot;border-color: var(--border-color);&quot;&gt;5.0" style="ellipse;whiteSpace=wrap;html=1;" parent="1" vertex="1">
          <mxGeometry x="320" y="560" width="120" height="80" as="geometry" />
        </mxCell>
        <mxCell id="4d2xTigSQF_k3JxQ7ui--24" value="" style="endArrow=classic;html=1;rounded=0;exitX=0.985;exitY=0.375;exitDx=0;exitDy=0;exitPerimeter=0;" parent="1" source="4d2xTigSQF_k3JxQ7ui--23" edge="1">
          <mxGeometry width="50" height="50" relative="1" as="geometry">
            <mxPoint x="445" y="604" as="sourcePoint" />
            <mxPoint x="580" y="590" as="targetPoint" />
          </mxGeometry>
        </mxCell>
        <mxCell id="4d2xTigSQF_k3JxQ7ui--25" value="" style="endArrow=classic;html=1;rounded=0;entryX=0.986;entryY=0.625;entryDx=0;entryDy=0;entryPerimeter=0;" parent="1" target="4d2xTigSQF_k3JxQ7ui--23" edge="1">
          <mxGeometry width="50" height="50" relative="1" as="geometry">
            <mxPoint x="580" y="610" as="sourcePoint" />
            <mxPoint x="441" y="623" as="targetPoint" />
          </mxGeometry>
        </mxCell>
        <mxCell id="4d2xTigSQF_k3JxQ7ui--26" value="" style="endArrow=none;html=1;rounded=0;" parent="1" edge="1">
          <mxGeometry width="50" height="50" relative="1" as="geometry">
            <mxPoint x="580" y="579.71" as="sourcePoint" />
            <mxPoint x="700" y="579.71" as="targetPoint" />
          </mxGeometry>
        </mxCell>
        <mxCell id="4d2xTigSQF_k3JxQ7ui--27" value="" style="endArrow=none;html=1;rounded=0;" parent="1" edge="1">
          <mxGeometry width="50" height="50" relative="1" as="geometry">
            <mxPoint x="580" y="620" as="sourcePoint" />
            <mxPoint x="700" y="620" as="targetPoint" />
          </mxGeometry>
        </mxCell>
        <mxCell id="4d2xTigSQF_k3JxQ7ui--28" value="attendance" style="text;html=1;align=center;verticalAlign=middle;resizable=0;points=[];autosize=1;strokeColor=none;fillColor=none;" parent="1" vertex="1">
          <mxGeometry x="600" y="584" width="80" height="30" as="geometry" />
        </mxCell>
        <mxCell id="4d2xTigSQF_k3JxQ7ui--29" value="Track&lt;br style=&quot;border-color: var(--border-color);&quot;&gt;Team Members&lt;br style=&quot;border-color: var(--border-color);&quot;&gt;2.0" style="ellipse;whiteSpace=wrap;html=1;" parent="1" vertex="1">
          <mxGeometry x="320" y="270" width="120" height="80" as="geometry" />
        </mxCell>
        <mxCell id="4d2xTigSQF_k3JxQ7ui--30" value="" style="endArrow=classic;html=1;rounded=0;exitX=0.985;exitY=0.375;exitDx=0;exitDy=0;exitPerimeter=0;" parent="1" source="4d2xTigSQF_k3JxQ7ui--29" edge="1">
          <mxGeometry width="50" height="50" relative="1" as="geometry">
            <mxPoint x="445" y="314" as="sourcePoint" />
            <mxPoint x="580" y="300" as="targetPoint" />
          </mxGeometry>
        </mxCell>
        <mxCell id="4d2xTigSQF_k3JxQ7ui--31" value="" style="endArrow=classic;html=1;rounded=0;entryX=0.986;entryY=0.625;entryDx=0;entryDy=0;entryPerimeter=0;" parent="1" target="4d2xTigSQF_k3JxQ7ui--29" edge="1">
          <mxGeometry width="50" height="50" relative="1" as="geometry">
            <mxPoint x="580" y="320" as="sourcePoint" />
            <mxPoint x="441" y="333" as="targetPoint" />
          </mxGeometry>
        </mxCell>
        <mxCell id="4d2xTigSQF_k3JxQ7ui--32" value="" style="endArrow=none;html=1;rounded=0;" parent="1" edge="1">
          <mxGeometry width="50" height="50" relative="1" as="geometry">
            <mxPoint x="580" y="289.71000000000004" as="sourcePoint" />
            <mxPoint x="700" y="289.71000000000004" as="targetPoint" />
          </mxGeometry>
        </mxCell>
        <mxCell id="4d2xTigSQF_k3JxQ7ui--33" value="" style="endArrow=none;html=1;rounded=0;" parent="1" edge="1">
          <mxGeometry width="50" height="50" relative="1" as="geometry">
            <mxPoint x="580" y="330" as="sourcePoint" />
            <mxPoint x="700" y="330" as="targetPoint" />
          </mxGeometry>
        </mxCell>
        <mxCell id="4d2xTigSQF_k3JxQ7ui--34" value="project" style="text;html=1;align=center;verticalAlign=middle;resizable=0;points=[];autosize=1;strokeColor=none;fillColor=none;" parent="1" vertex="1">
          <mxGeometry x="610" y="294" width="60" height="30" as="geometry" />
        </mxCell>
        <mxCell id="4d2xTigSQF_k3JxQ7ui--35" value="Login&lt;br style=&quot;border-color: var(--border-color);&quot;&gt;1.0" style="ellipse;whiteSpace=wrap;html=1;" parent="1" vertex="1">
          <mxGeometry x="320" y="180" width="120" height="60" as="geometry" />
        </mxCell>
        <mxCell id="4d2xTigSQF_k3JxQ7ui--36" value="" style="endArrow=classic;html=1;rounded=0;exitX=0.97;exitY=0.334;exitDx=0;exitDy=0;exitPerimeter=0;" parent="1" source="4d2xTigSQF_k3JxQ7ui--35" edge="1">
          <mxGeometry width="50" height="50" relative="1" as="geometry">
            <mxPoint x="440" y="205" as="sourcePoint" />
            <mxPoint x="580" y="200" as="targetPoint" />
          </mxGeometry>
        </mxCell>
        <mxCell id="4d2xTigSQF_k3JxQ7ui--37" value="" style="endArrow=classic;html=1;rounded=0;entryX=0.971;entryY=0.667;entryDx=0;entryDy=0;entryPerimeter=0;" parent="1" target="4d2xTigSQF_k3JxQ7ui--35" edge="1">
          <mxGeometry width="50" height="50" relative="1" as="geometry">
            <mxPoint x="580" y="220" as="sourcePoint" />
            <mxPoint x="438.67999999999984" y="222.27999999999997" as="targetPoint" />
          </mxGeometry>
        </mxCell>
        <mxCell id="4d2xTigSQF_k3JxQ7ui--38" value="" style="endArrow=none;html=1;rounded=0;" parent="1" edge="1">
          <mxGeometry width="50" height="50" relative="1" as="geometry">
            <mxPoint x="580" y="190" as="sourcePoint" />
            <mxPoint x="700" y="190" as="targetPoint" />
          </mxGeometry>
        </mxCell>
        <mxCell id="4d2xTigSQF_k3JxQ7ui--39" value="" style="endArrow=none;html=1;rounded=0;" parent="1" edge="1">
          <mxGeometry width="50" height="50" relative="1" as="geometry">
            <mxPoint x="580" y="230" as="sourcePoint" />
            <mxPoint x="700" y="230" as="targetPoint" />
          </mxGeometry>
        </mxCell>
        <mxCell id="4d2xTigSQF_k3JxQ7ui--40" value="users" style="text;html=1;align=center;verticalAlign=middle;resizable=0;points=[];autosize=1;strokeColor=none;fillColor=none;" parent="1" vertex="1">
          <mxGeometry x="615" y="195" width="50" height="30" as="geometry" />
        </mxCell>
        <mxCell id="4d2xTigSQF_k3JxQ7ui--41" value="" style="endArrow=none;html=1;rounded=0;" parent="1" edge="1">
          <mxGeometry width="50" height="50" relative="1" as="geometry">
            <mxPoint x="580" y="680" as="sourcePoint" />
            <mxPoint x="700" y="680" as="targetPoint" />
          </mxGeometry>
        </mxCell>
        <mxCell id="4d2xTigSQF_k3JxQ7ui--42" value="Manage Project&amp;nbsp;&lt;br style=&quot;border-color: var(--border-color);&quot;&gt;6.0" style="ellipse;whiteSpace=wrap;html=1;" parent="1" vertex="1">
          <mxGeometry x="320" y="670" width="120" height="60" as="geometry" />
        </mxCell>
        <mxCell id="4d2xTigSQF_k3JxQ7ui--43" value="" style="endArrow=classic;html=1;rounded=0;exitX=0.972;exitY=0.335;exitDx=0;exitDy=0;exitPerimeter=0;" parent="1" source="4d2xTigSQF_k3JxQ7ui--42" edge="1">
          <mxGeometry width="50" height="50" relative="1" as="geometry">
            <mxPoint x="440" y="695" as="sourcePoint" />
            <mxPoint x="580" y="690" as="targetPoint" />
          </mxGeometry>
        </mxCell>
        <mxCell id="4d2xTigSQF_k3JxQ7ui--44" value="" style="endArrow=classic;html=1;rounded=0;entryX=0.97;entryY=0.667;entryDx=0;entryDy=0;entryPerimeter=0;" parent="1" target="4d2xTigSQF_k3JxQ7ui--42" edge="1">
          <mxGeometry width="50" height="50" relative="1" as="geometry">
            <mxPoint x="580" y="710" as="sourcePoint" />
            <mxPoint x="438.67999999999984" y="712.28" as="targetPoint" />
          </mxGeometry>
        </mxCell>
        <mxCell id="4d2xTigSQF_k3JxQ7ui--45" value="project" style="text;html=1;align=center;verticalAlign=middle;resizable=0;points=[];autosize=1;strokeColor=none;fillColor=none;" parent="1" vertex="1">
          <mxGeometry x="610" y="685" width="60" height="30" as="geometry" />
        </mxCell>
        <mxCell id="4d2xTigSQF_k3JxQ7ui--46" value="" style="endArrow=none;html=1;rounded=0;" parent="1" edge="1">
          <mxGeometry width="50" height="50" relative="1" as="geometry">
            <mxPoint x="580" y="720" as="sourcePoint" />
            <mxPoint x="700" y="720" as="targetPoint" />
          </mxGeometry>
        </mxCell>
      </root>
    </mxGraphModel>
  </diagram>
</mxfile>
